<svg width="18" height="15" viewBox="0 0 18 15" fill="none" xmlns="http://www.w3.org/2000/svg">
<path fill-rule="evenodd" clip-rule="evenodd" d="M0.011508 3.05436C0.00388669 3.14634 0 3.23938 0 3.33333V10.8333C0 12.6743 1.49238 14.1667 3.33333 14.1667H14.1667C16.0076 14.1667 17.5 12.6743 17.5 10.8333V3.33333C17.5 3.23953 17.4961 3.14664 17.4885 3.0548C17.5185 2.87629 17.4907 2.68826 17.4004 2.52124C17.0378 1.07279 15.7275 0 14.1667 0H3.33333C1.77236 0 0.461994 1.07297 0.0995294 2.52161C0.00946988 2.6884 -0.0183348 2.87612 0.011508 3.05436ZM1.66667 10.0715L4.82741 6.91074C4.83049 6.90767 4.83358 6.90462 4.8367 6.9016L1.66667 4.56579V10.0715ZM6.16019 7.87681C6.12136 7.9534 6.06994 8.02524 6.00592 8.08926L2.25592 11.8393C2.20921 11.886 2.15833 11.926 2.10448 11.9593C2.40917 12.2916 2.84692 12.5 3.33333 12.5H14.1667C14.6531 12.5 15.0908 12.2916 15.3955 11.9593C15.3417 11.926 15.2908 11.886 15.2441 11.8393L11.4941 8.08926C11.4301 8.02526 11.3787 7.95343 11.3398 7.87687L9.73872 9.05664C9.15079 9.48985 8.34931 9.48985 7.76139 9.05664L6.16019 7.87681ZM15.8333 4.56587V10.0715L12.6726 6.91074L12.6634 6.90165L15.8333 4.56587ZM15.6711 2.61516C15.4028 2.05418 14.83 1.66667 14.1667 1.66667H3.33333C2.67003 1.66667 2.09723 2.05415 1.82893 2.61511L8.75005 7.71488L15.6711 2.61516Z" fill="white"/>
<path d="M6.16019 7.87681C6.12136 7.9534 6.06994 8.02524 6.00592 8.08926L2.25592 11.8393C2.20921 11.886 2.15833 11.926 2.10448 11.9593C2.40917 12.2916 2.84692 12.5 3.33333 12.5H14.1667C14.6531 12.5 15.0908 12.2916 15.3955 11.9593C15.3417 11.926 15.2908 11.886 15.2441 11.8393L11.4941 8.08926C11.4301 8.02526 11.3787 7.95343 11.3398 7.87687L9.73872 9.05664C9.15079 9.48985 8.34931 9.48985 7.76139 9.05664L6.16019 7.87681Z" fill="#3B3B3B"/>
<path d="M15.6711 2.61516C15.4028 2.05418 14.83 1.66667 14.1667 1.66667H3.33333C2.67003 1.66667 2.09723 2.05415 1.82893 2.61511L8.75005 7.71488L15.6711 2.61516Z" fill="#3B3B3B"/>
</svg>
