<svg width="22" height="24" viewBox="0 0 22 24" fill="none" xmlns="http://www.w3.org/2000/svg">
<path d="M8.4306 3.9C7.92287 2.1 8.61176 0 10.8 0C12.9882 0 13.6771 2.1 13.1694 3.9C12.8118 5.16772 11.8666 8.07232 11.3388 9.67931C11.2416 9.97539 11.4379 10.2869 11.708 10.4437C11.9778 10.6004 12.3377 10.6072 12.5461 10.3754C13.6783 9.11651 15.73 6.84744 16.6529 5.90468C17.9629 4.56641 20.1319 4.11106 21.2261 5.99998C22.3202 7.88889 20.8401 9.5336 19.0223 9.9953C17.742 10.3205 14.7454 10.9569 13.0854 11.3048C12.7797 11.3689 12.6058 11.6886 12.6058 12C12.6058 12.3114 12.7797 12.6311 13.0854 12.6952C14.7454 13.0431 17.742 13.6795 19.0223 14.0047C20.8401 14.4664 22.3202 16.1111 21.2261 18C20.132 19.8889 17.9629 19.4336 16.6529 18.0953C15.73 17.1525 13.6783 14.8835 12.5461 13.6246C12.3377 13.3928 11.9778 13.3995 11.708 13.5563C11.4379 13.7131 11.2416 14.0246 11.3388 14.3207C11.8666 15.9277 12.8118 18.8323 13.1694 20.1C13.6771 21.9 12.9882 24 10.8 24C8.61179 24 7.92285 21.9 8.4306 20.1C8.78821 18.8323 9.73342 15.9277 10.2612 14.3207C10.3584 14.0246 10.1621 13.7131 9.89202 13.5563C9.62224 13.3996 9.26233 13.3928 9.0539 13.6246C7.92173 14.8835 5.86997 17.1526 4.9471 18.0953C3.63705 19.4336 1.46805 19.8889 0.373935 18C-0.720175 16.1111 0.759921 14.4664 2.57771 14.0047C3.85803 13.6795 6.85454 13.0431 8.51457 12.6952C8.82033 12.6311 8.99415 12.3114 8.99415 12C8.99415 11.6886 8.82033 11.3689 8.51458 11.3048C6.85454 10.9569 3.85801 10.3205 2.5777 9.99531C0.759922 9.53359 -0.720201 7.88893 0.37391 6.00002C1.46802 4.1111 3.63705 4.5664 4.94709 5.9047C5.86995 6.84746 7.92171 9.11652 9.05389 10.3754C9.26232 10.6072 9.62223 10.6005 9.89202 10.4437C10.1621 10.2869 10.3584 9.97539 10.2612 9.6793C9.73341 8.07232 8.78818 5.16772 8.4306 3.9Z" fill="white"/>
</svg>
