<svg width="14" height="14" viewBox="0 0 14 14" fill="none" xmlns="http://www.w3.org/2000/svg">
<path fill-rule="evenodd" clip-rule="evenodd" d="M1.99985 0.666667C1.99985 0.298477 1.70138 0 1.33319 0C0.964997 0 0.66652 0.298477 0.66652 0.666667V4.66667C0.66652 5.03486 0.964997 5.33333 1.33319 5.33333H5.33319C5.70138 5.33333 5.99985 5.03486 5.99985 4.66667C5.99985 4.29848 5.70138 4 5.33319 4H2.50317C3.10382 3.24981 3.9002 2.67085 4.81256 2.33261C6.03089 1.88092 7.3722 1.88955 8.58462 2.35686C9.79704 2.82417 10.7972 3.71801 11.3972 4.87054C11.9972 6.02307 12.1558 7.355 11.8433 8.61622C11.5307 9.87743 10.7685 10.9812 9.69973 11.7201C8.63097 12.4591 7.3292 12.7825 6.03887 12.6296C4.74853 12.4767 3.55841 11.858 2.69198 10.8897C1.82555 9.92134 1.34242 8.67003 1.33332 7.3707C1.33074 7.00252 1.03018 6.70614 0.661997 6.70872C0.293816 6.7113 -0.0025627 7.01186 1.67097e-05 7.38004C0.0113952 9.0042 0.615306 10.5683 1.69834 11.7787C2.78138 12.9891 4.26904 13.7625 5.88195 13.9537C7.49487 14.1448 9.12209 13.7406 10.458 12.8168C11.794 11.8931 12.7468 10.5135 13.1374 8.93694C13.5281 7.36042 13.3299 5.69551 12.5798 4.25485C11.8298 2.81418 10.5797 1.69687 9.06415 1.11274C7.54862 0.528602 5.87198 0.517823 4.34907 1.08242C3.46287 1.41097 2.6642 1.92121 1.99985 2.57238V0.666667Z" fill="white"/>
</svg>
