<svg width="18" height="18" viewBox="0 0 18 18" fill="none" xmlns="http://www.w3.org/2000/svg">
<path fill-rule="evenodd" clip-rule="evenodd" d="M8.29289 16.2929C7.90237 16.6834 7.90237 17.3166 8.29289 17.7071C8.68342 18.0976 9.31658 18.0976 9.70711 17.7071L17.7071 9.70711C17.8946 9.51957 18 9.26522 18 9C18 8.73478 17.8946 8.48043 17.7071 8.29289L9.70711 0.292893C9.31658 -0.097631 8.68342 -0.0976309 8.29289 0.292893C7.90237 0.683417 7.90237 1.31658 8.29289 1.70711L14.5858 8H1C0.447715 8 0 8.44771 0 9C0 9.55229 0.447715 10 1 10H14.5858L8.29289 16.2929Z" fill="black"/>
</svg>
