<svg width="12" height="12" viewBox="0 0 12 12" fill="none" xmlns="http://www.w3.org/2000/svg">
<path fill-rule="evenodd" clip-rule="evenodd" d="M0 5.83333C0 2.61167 2.61167 0 5.83333 0C9.05499 0 11.6667 2.61167 11.6667 5.83333C11.6667 9.05499 9.05499 11.6667 5.83333 11.6667C2.61167 11.6667 0 9.05499 0 5.83333ZM9.16248 5.07915C9.39029 4.85134 9.39029 4.48199 9.16248 4.25419C8.93467 4.02638 8.56533 4.02638 8.33752 4.25419L5.25 7.34171L3.91248 6.00419C3.68467 5.77638 3.31533 5.77638 3.08752 6.00419C2.85972 6.23199 2.85972 6.60134 3.08752 6.82915L4.83752 8.57915C5.06533 8.80695 5.43467 8.80695 5.66248 8.57915L9.16248 5.07915Z" fill="url(#paint0_linear_2589_275)"/>
<defs>
<linearGradient id="paint0_linear_2589_275" x1="5.83333" y1="0" x2="5.83333" y2="11.6667" gradientUnits="userSpaceOnUse">
<stop offset="0.605769" stop-color="#BCFFCD"/>
<stop offset="1" stop-color="#3CFE6C"/>
</linearGradient>
</defs>
</svg>
