<svg width="17" height="17" viewBox="0 0 17 17" fill="none" xmlns="http://www.w3.org/2000/svg">
<path fill-rule="evenodd" clip-rule="evenodd" d="M0 8.33333C0 3.73096 3.73096 0 8.33333 0C12.9357 0 16.6667 3.73096 16.6667 8.33333C16.6667 12.9357 12.9357 16.6667 8.33333 16.6667C3.73096 16.6667 0 12.9357 0 8.33333ZM13.0893 7.25592C13.4147 6.93049 13.4147 6.40285 13.0893 6.07741C12.7638 5.75197 12.2362 5.75197 11.9107 6.07741L7.5 10.4882L5.58926 8.57741C5.26382 8.25197 4.73618 8.25197 4.41074 8.57741C4.08531 8.90285 4.08531 9.43049 4.41074 9.75592L6.91074 12.2559C7.23618 12.5814 7.76382 12.5814 8.08926 12.2559L13.0893 7.25592Z" fill="white"/>
</svg>
