<svg width="12" height="12" viewBox="0 0 12 12" fill="none" xmlns="http://www.w3.org/2000/svg">
<path fill-rule="evenodd" clip-rule="evenodd" d="M0 5.83333C0 2.61167 2.61167 0 5.83333 0C9.05499 0 11.6667 2.61167 11.6667 5.83333C11.6667 9.05499 9.05499 11.6667 5.83333 11.6667C2.61167 11.6667 0 9.05499 0 5.83333ZM7.99581 7.99581C7.76801 8.22362 7.39866 8.22362 7.17085 7.99581L5.83335 6.65831L4.49583 7.99583C4.26802 8.22363 3.89868 8.22363 3.67087 7.99583C3.44306 7.76802 3.44306 7.39868 3.67087 7.17087L5.00839 5.83335L3.67085 4.49581C3.44305 4.26801 3.44305 3.89866 3.67085 3.67085C3.89866 3.44305 4.26801 3.44305 4.49581 3.67085L5.83335 5.00839L7.17087 3.67087C7.39868 3.44306 7.76802 3.44306 7.99583 3.67087C8.22363 3.89868 8.22363 4.26802 7.99583 4.49583L6.65831 5.83335L7.99581 7.17085C8.22362 7.39866 8.22362 7.76801 7.99581 7.99581Z" fill="url(#paint0_linear_2589_1079)"/>
<defs>
<linearGradient id="paint0_linear_2589_1079" x1="5.83333" y1="0" x2="5.83333" y2="11.6667" gradientUnits="userSpaceOnUse">
<stop stop-color="#FFCFCF"/>
<stop offset="1" stop-color="#F47171"/>
</linearGradient>
</defs>
</svg>
