<svg width="18" height="18" viewBox="0 0 18 18" fill="none" xmlns="http://www.w3.org/2000/svg">
<path fill-rule="evenodd" clip-rule="evenodd" d="M14.375 0C14.6805 0 14.9413 0.220883 14.9915 0.52225L15.1146 1.26083C15.2463 2.0511 15.8656 2.67036 16.6558 2.80207L17.3944 2.92517C17.6958 2.9754 17.9167 3.23614 17.9167 3.54167C17.9167 3.84719 17.6958 4.10793 17.3944 4.15816L16.6558 4.28126C15.8656 4.41297 15.2463 5.03224 15.1146 5.8225L14.9915 6.56108C14.9413 6.86245 14.6805 7.08333 14.375 7.08333C14.0695 7.08333 13.8087 6.86245 13.7585 6.56108L13.6354 5.8225C13.5037 5.03224 12.8844 4.41297 12.0942 4.28126L11.3556 4.15816C11.0542 4.10793 10.8333 3.84719 10.8333 3.54167C10.8333 3.23614 11.0542 2.9754 11.3556 2.92517L12.0942 2.80207C12.8844 2.67036 13.5037 2.0511 13.6354 1.26083L13.7585 0.52225C13.8087 0.220883 14.0695 0 14.375 0ZM14.3333 8.75C12.32 8.75 12.0362 6.91233 12.002 6.19693C11.9948 6.04741 11.8693 5.92186 11.7197 5.91471C11.0043 5.88051 9.16667 5.59671 9.16667 3.58334C9.16667 2.90673 9.3803 2.42545 9.69194 2.08333H3.33333C1.49238 2.08333 0 3.57572 0 5.41667V13.75C0 15.5909 1.49238 17.0833 3.33333 17.0833H13.3333C15.1743 17.0833 16.6667 15.5909 16.6667 13.75V7.03817C16.3713 7.84119 15.7288 8.75 14.3333 8.75ZM4.18943 8.33333C4.18943 9.02369 4.74908 9.58333 5.43943 9.58333C6.12979 9.58333 6.68943 9.02369 6.68943 8.33333C6.68943 7.64298 6.12979 7.08333 5.43943 7.08333C4.74908 7.08333 4.18943 7.64298 4.18943 8.33333ZM8.99737 9.16871C9.71434 8.29241 11.0012 8.14813 11.8935 8.84908C12.7207 9.49897 13.9308 10.4524 14.8956 11.2243C15.255 11.5118 15.3132 12.0362 15.0257 12.3956C14.7382 12.755 14.2138 12.8132 13.8544 12.5257C12.8957 11.7587 11.6904 10.8091 10.8638 10.1597C10.6872 10.0209 10.4311 10.0484 10.2873 10.2241L7.31163 13.861C7.0336 14.2009 6.53959 14.2666 6.1823 14.0114L4.1273 12.5436C3.96156 12.4252 3.73452 12.444 3.59049 12.588L2.88092 13.2976C2.55549 13.623 2.02785 13.623 1.70241 13.2976C1.37697 12.9722 1.37697 12.4445 1.70241 12.1191L2.41198 11.4095C3.13211 10.6894 4.26732 10.5954 5.09604 11.1874L6.51593 12.2016L8.99737 9.16871Z" fill="#5E5E5E"/>
</svg>
