<svg width="17" height="17" viewBox="0 0 17 17" fill="none" xmlns="http://www.w3.org/2000/svg">
<path fill-rule="evenodd" clip-rule="evenodd" d="M9.86818 0.52662C8.96541 -0.175539 7.70126 -0.175541 6.79848 0.526619L0.965149 5.06366C0.356182 5.5373 0 6.26556 0 7.03704V13.7219C0 15.1026 1.11929 16.2219 2.5 16.2219H4.16667C5.54738 16.2219 6.66667 15.1026 6.66667 13.7219V12.0552C6.66667 11.595 7.03976 11.2219 7.5 11.2219H9.16667C9.6269 11.2219 10 11.595 10 12.0552V13.7219C10 15.1026 11.1193 16.2219 12.5 16.2219H14.1667C15.5474 16.2219 16.6667 15.1026 16.6667 13.7219V7.03704C16.6667 6.26556 16.3105 5.5373 15.7015 5.06366L9.86818 0.52662Z" fill="white"/>
</svg>
