<svg width="12" height="13" viewBox="0 0 12 13" fill="none" xmlns="http://www.w3.org/2000/svg">
<path fill-rule="evenodd" clip-rule="evenodd" d="M5.65243 2.36979e-05C3.78009 0.00694993 2.26788 1.53039 2.27481 3.40272C2.28 4.80562 3.13659 6.00634 4.3534 6.51733C3.22798 6.68199 2.35991 7.06228 1.69689 7.56945C0.801268 8.25456 0.331857 9.13129 0.0880338 9.88763C-0.123049 10.5424 0.0623848 11.1615 0.463801 11.5964C0.853449 12.0186 1.43444 12.2608 2.04456 12.2608L9.26459 12.2608C9.8747 12.2608 10.4557 12.0186 10.8453 11.5964C11.2468 11.1614 11.4322 10.5424 11.2211 9.88762C10.9773 9.13128 10.5079 8.25455 9.61225 7.56945C8.95226 7.0646 8.08909 6.68547 6.97115 6.5196C8.19935 6.00641 9.06036 4.7915 9.05513 3.37764C9.0482 1.50531 7.52476 -0.00690253 5.65243 2.36979e-05Z" fill="white"/>
</svg>
