<svg width="16" height="16" viewBox="0 0 16 16" fill="none" xmlns="http://www.w3.org/2000/svg">
<path d="M6.5 8.66675C9.33333 8.66675 9.33333 5.16675 9.33333 5.16675C9.33333 5.16675 9.33333 8.66675 12.1667 8.66675C9.33333 8.66675 9.33333 12.1667 9.33333 12.1667C9.33333 12.1667 9.33333 8.66675 6.5 8.66675Z" fill="white"/>
<path d="M3.83398 5.33325C5.33398 5.33325 5.33398 3.83325 5.33398 3.83325C5.33398 3.83325 5.33398 5.33325 6.83398 5.33325C5.33398 5.33325 5.33398 6.83325 5.33398 6.83325C5.33398 6.83325 5.33398 5.33325 3.83398 5.33325Z" fill="white"/>
<path d="M5.16732 10.8333H5.17398M12.1673 3.83325H12.174M12.1673 12.1666H12.174M9.33398 5.16659C9.33398 5.16659 9.33398 8.66658 6.50065 8.66658C9.33398 8.66658 9.33398 12.1666 9.33398 12.1666C9.33398 12.1666 9.33398 8.66658 12.1673 8.66658C9.33398 8.66658 9.33398 5.16659 9.33398 5.16659ZM5.33398 3.83325C5.33398 3.83325 5.33398 5.33325 3.83398 5.33325C5.33398 5.33325 5.33398 6.83325 5.33398 6.83325C5.33398 6.83325 5.33398 5.33325 6.83398 5.33325C5.33398 5.33325 5.33398 3.83325 5.33398 3.83325Z" stroke="white" stroke-linecap="round" stroke-linejoin="round"/>
</svg>
